<svg width="67" height="53" viewBox="0 0 67 53" fill="none" xmlns="http://www.w3.org/2000/svg">
<path d="M4.7211 53H0V0H4.7211V1.46579C4.97909 1.05434 5.31447 0.720037 5.72724 0.462881C6.14001 0.154294 6.60438 0 7.12035 0H9.44221C10.7321 0 11.8415 0.462882 12.7702 1.38865C13.6989 2.31441 14.1633 3.42018 14.1633 4.70597V53H9.44221V4.70597H4.7211V53Z" fill="#C53D2F"/>
<path d="M31.7755 48.2169C31.7755 49.5541 31.3112 50.6856 30.3824 51.6114C29.5053 52.5371 28.396 53 27.0544 53H22.3333C20.9918 53 19.8567 52.5371 18.9279 51.6114C18.0508 50.6856 17.6122 49.5541 17.6122 48.2169V4.70597C17.6122 3.36875 18.0508 2.26298 18.9279 1.38865C19.8567 0.462882 20.9918 0 22.3333 0H27.0544C28.396 0 29.5053 0.462882 30.3824 1.38865C31.3112 2.26298 31.7755 3.36875 31.7755 4.70597V11.7263H27.0544V4.70597H22.3333V48.2169H27.0544V23.5298H24.7326V18.8239H31.7755V48.2169Z" fill="#C53D2F"/>
<path d="M39.8682 28.313V53H35.1471V4.78312C35.1471 3.49733 35.6114 2.39156 36.5402 1.46579C37.4689 0.540028 38.5782 0.077146 39.8682 0.077146H44.5893C45.9308 0.077146 47.0401 0.540028 47.9173 1.46579C48.846 2.34013 49.3104 3.4459 49.3104 4.78312V53H44.5893V28.313H39.8682ZM44.5893 23.607V4.78312H39.8682V23.607H44.5893Z" fill="#C53D2F"/>
<path d="M62.2789 48.294V4.70597H57.5578V48.294H62.2789ZM67 48.294C67 49.5798 66.5356 50.6856 65.6069 51.6114C64.6781 52.5371 63.5688 53 62.2789 53H57.5578C56.2679 53 55.1585 52.5371 54.2298 51.6114C53.3011 50.6856 52.8367 49.5798 52.8367 48.294V4.70597C52.8367 3.42018 53.3011 2.31441 54.2298 1.38865C55.1585 0.462882 56.2679 0 57.5578 0H62.2789C63.5688 0 64.6781 0.462882 65.6069 1.38865C66.5356 2.31441 67 3.42018 67 4.70597V48.294Z" fill="#C53D2F"/>
</svg>
