<svg width="1748" height="123" viewBox="0 0 1748 123" fill="none" xmlns="http://www.w3.org/2000/svg">
<mask id="path-1-outside-1_290_170" maskUnits="userSpaceOnUse" x="0.957031" y="0.519531" width="1747" height="123" fill="black">
<rect fill="white" x="0.957031" y="0.519531" width="1747" height="123"></rect>
<path d="M114.724 61.5451C114.724 74.3377 112.237 85.1291 107.262 93.9194C102.287 102.672 95.5726 109.312 87.119 113.838C78.6654 118.326 69.2392 120.571 58.8406 120.571C48.3671 120.571 38.9035 118.308 30.4499 113.782C22.0337 109.218 15.3382 102.56 10.3633 93.8072C5.42578 85.0169 2.95703 74.2629 2.95703 61.5451C2.95703 48.7525 5.42578 37.9798 10.3633 29.2269C15.3382 20.4367 22.0337 13.7972 30.4499 9.30859C38.9035 4.78255 48.3671 2.51953 58.8406 2.51953C69.2392 2.51953 78.6654 4.78255 87.119 9.30859C95.5726 13.7972 102.287 20.4367 107.262 29.2269C112.237 37.9798 114.724 48.7525 114.724 61.5451ZM82.6303 61.5451C82.6303 54.6625 81.7139 48.8647 79.881 44.1516C78.0856 39.4012 75.4111 35.8102 71.8576 33.3789C68.3415 30.9102 64.0025 29.6758 58.8406 29.6758C53.6786 29.6758 49.3209 30.9102 45.7674 33.3789C42.2513 35.8102 39.5768 39.4012 37.744 44.1516C35.9485 48.8647 35.0508 54.6625 35.0508 61.5451C35.0508 68.4277 35.9485 74.2442 37.744 78.9947C39.5768 83.7077 42.2513 87.2987 45.7674 89.7674C49.3209 92.1987 53.6786 93.4144 58.8406 93.4144C64.0025 93.4144 68.3415 92.1987 71.8576 89.7674C75.4111 87.2987 78.0856 83.7077 79.881 78.9947C81.7139 74.2442 82.6303 68.4277 82.6303 61.5451ZM205.061 4.09055H236.257V77.7042C236.257 86.457 234.162 94.0316 229.973 100.428C225.821 106.787 220.023 111.706 212.579 115.184C205.136 118.626 196.495 120.346 186.657 120.346C176.745 120.346 168.067 118.626 160.623 115.184C153.18 111.706 147.382 106.787 143.23 100.428C139.115 94.0316 137.058 86.457 137.058 77.7042V4.09055H168.254V75.011C168.254 78.5645 169.039 81.744 170.61 84.5494C172.181 87.3174 174.351 89.4869 177.119 91.0579C179.924 92.6289 183.104 93.4144 186.657 93.4144C190.248 93.4144 193.428 92.6289 196.196 91.0579C198.964 89.4869 201.133 87.3174 202.704 84.5494C204.275 81.744 205.061 78.5645 205.061 75.011V4.09055ZM258.983 119V4.09055H308.583C317.111 4.09055 324.573 5.64287 330.97 8.74752C337.366 11.8522 342.341 16.3221 345.894 22.1573C349.448 27.9925 351.225 34.9873 351.225 43.1417C351.225 51.3709 349.392 58.3095 345.726 63.9577C342.098 69.6059 336.992 73.8702 330.409 76.7504C323.863 79.6306 316.213 81.0707 307.461 81.0707H277.836V56.832H301.176C304.842 56.832 307.965 56.3832 310.546 55.4854C313.165 54.5503 315.166 53.0728 316.55 51.0529C317.971 49.033 318.682 46.396 318.682 43.1417C318.682 39.85 317.971 37.1756 316.55 35.1183C315.166 33.0236 313.165 31.4899 310.546 30.5174C307.965 29.5075 304.842 29.0025 301.176 29.0025H290.179V119H258.983ZM326.313 66.2582L355.04 119H321.151L293.097 66.2582H326.313ZM511.222 4.09055V119H485.188L443.668 58.6275H442.995V119H411.799V4.09055H438.282L479.128 64.2383H480.026V4.09055H511.222ZM533.879 119V4.09055H616.694V29.2269H565.075V48.9769H612.43V74.1133H565.075V93.8633H616.469V119H533.879ZM673.506 4.09055L692.358 37.5309H693.256L712.333 4.09055H747.12L712.782 61.5451L748.466 119H712.782L693.256 84.886H692.358L672.833 119H637.372L672.608 61.5451L638.495 4.09055H673.506ZM765.329 29.2269V4.09055H865.202V29.2269H830.639V119H799.892V29.2269H765.329ZM1031.5 47.1815H999.852C999.628 44.5631 999.029 42.1879 998.057 40.0558C997.122 37.9237 995.813 36.0908 994.129 34.5572C992.483 32.9862 990.482 31.7892 988.126 30.9663C985.769 30.1059 983.095 29.6758 980.102 29.6758C974.866 29.6758 970.433 30.9476 966.805 33.4911C963.214 36.0347 960.483 39.6817 958.613 44.4322C956.78 49.1826 955.864 54.887 955.864 61.5451C955.864 68.5773 956.799 74.4686 958.669 79.2191C960.577 83.9322 963.326 87.4857 966.917 89.8796C970.508 92.2362 974.828 93.4144 979.878 93.4144C982.758 93.4144 985.339 93.0591 987.621 92.3484C989.902 91.6003 991.885 90.5342 993.568 89.1502C995.251 87.7662 996.617 86.1017 997.664 84.1566C998.749 82.1741 999.478 79.9485 999.852 77.4798L1031.5 77.7042C1031.12 82.5669 1029.76 87.5231 1027.4 92.5728C1025.04 97.5851 1021.7 102.223 1017.36 106.488C1013.06 110.714 1007.73 114.118 1001.37 116.699C995.008 119.28 987.621 120.571 979.205 120.571C968.656 120.571 959.193 118.308 950.814 113.782C942.473 109.256 935.871 102.597 931.008 93.8072C926.183 85.0169 923.77 74.2629 923.77 61.5451C923.77 48.7525 926.239 37.9798 931.176 29.2269C936.114 20.4367 942.772 13.7972 951.151 9.30859C959.529 4.78255 968.881 2.51953 979.205 2.51953C986.461 2.51953 993.138 3.51077 999.235 5.49325C1005.33 7.47573 1010.68 10.3746 1015.28 14.19C1019.88 17.9679 1023.59 22.6249 1026.39 28.1609C1029.2 33.6969 1030.9 40.0371 1031.5 47.1815ZM1053.55 119V4.09055H1084.75V48.9769H1126.04V4.09055H1157.24V119H1126.04V74.1133H1084.75V119H1053.55ZM1209.8 119H1176.14L1214.06 4.09055H1256.71L1294.64 119H1260.97L1235.83 35.7354H1234.94L1209.8 119ZM1203.52 73.6644H1266.81V97.0053H1203.52V73.6644ZM1313.6 119V4.09055H1363.2C1371.73 4.09055 1379.19 5.77379 1385.59 9.14027C1391.99 12.5067 1396.96 17.2385 1400.51 23.3356C1404.07 29.4326 1405.84 36.5584 1405.84 44.7127C1405.84 52.9419 1404.01 60.0676 1400.35 66.0898C1396.72 72.1121 1391.61 76.7504 1385.03 80.0046C1378.48 83.2589 1370.83 84.886 1362.08 84.886H1332.45V60.6474H1355.8C1359.46 60.6474 1362.58 60.0115 1365.17 58.7397C1367.78 57.4305 1369.79 55.579 1371.17 53.185C1372.59 50.7911 1373.3 47.967 1373.3 44.7127C1373.3 41.421 1372.59 38.6156 1371.17 36.2965C1369.79 33.94 1367.78 32.1445 1365.17 30.9102C1362.58 29.6384 1359.46 29.0025 1355.8 29.0025H1344.8V119H1313.6ZM1422.05 29.2269V4.09055H1521.92V29.2269H1487.36V119H1456.61V29.2269H1422.05ZM1541.56 119V4.09055H1624.38V29.2269H1572.76V48.9769H1620.11V74.1133H1572.76V93.8633H1624.15V119H1541.56ZM1647.75 119V4.09055H1697.35C1705.88 4.09055 1713.34 5.64287 1719.73 8.74752C1726.13 11.8522 1731.11 16.3221 1734.66 22.1573C1738.21 27.9925 1739.99 34.9873 1739.99 43.1417C1739.99 51.3709 1738.16 58.3095 1734.49 63.9577C1730.86 69.6059 1725.76 73.8702 1719.17 76.7504C1712.63 79.6306 1704.98 81.0707 1696.22 81.0707H1666.6V56.832H1689.94C1693.61 56.832 1696.73 56.3832 1699.31 55.4854C1701.93 54.5503 1703.93 53.0728 1705.31 51.0529C1706.74 49.033 1707.45 46.396 1707.45 43.1417C1707.45 39.85 1706.74 37.1756 1705.31 35.1183C1703.93 33.0236 1701.93 31.4899 1699.31 30.5174C1696.73 29.5075 1693.61 29.0025 1689.94 29.0025H1678.94V119H1647.75ZM1715.08 66.2582L1743.8 119H1709.92L1681.86 66.2582H1715.08Z"></path>
</mask>
<path d="M114.724 61.5451C114.724 74.3377 112.237 85.1291 107.262 93.9194C102.287 102.672 95.5726 109.312 87.119 113.838C78.6654 118.326 69.2392 120.571 58.8406 120.571C48.3671 120.571 38.9035 118.308 30.4499 113.782C22.0337 109.218 15.3382 102.56 10.3633 93.8072C5.42578 85.0169 2.95703 74.2629 2.95703 61.5451C2.95703 48.7525 5.42578 37.9798 10.3633 29.2269C15.3382 20.4367 22.0337 13.7972 30.4499 9.30859C38.9035 4.78255 48.3671 2.51953 58.8406 2.51953C69.2392 2.51953 78.6654 4.78255 87.119 9.30859C95.5726 13.7972 102.287 20.4367 107.262 29.2269C112.237 37.9798 114.724 48.7525 114.724 61.5451ZM82.6303 61.5451C82.6303 54.6625 81.7139 48.8647 79.881 44.1516C78.0856 39.4012 75.4111 35.8102 71.8576 33.3789C68.3415 30.9102 64.0025 29.6758 58.8406 29.6758C53.6786 29.6758 49.3209 30.9102 45.7674 33.3789C42.2513 35.8102 39.5768 39.4012 37.744 44.1516C35.9485 48.8647 35.0508 54.6625 35.0508 61.5451C35.0508 68.4277 35.9485 74.2442 37.744 78.9947C39.5768 83.7077 42.2513 87.2987 45.7674 89.7674C49.3209 92.1987 53.6786 93.4144 58.8406 93.4144C64.0025 93.4144 68.3415 92.1987 71.8576 89.7674C75.4111 87.2987 78.0856 83.7077 79.881 78.9947C81.7139 74.2442 82.6303 68.4277 82.6303 61.5451ZM205.061 4.09055H236.257V77.7042C236.257 86.457 234.162 94.0316 229.973 100.428C225.821 106.787 220.023 111.706 212.579 115.184C205.136 118.626 196.495 120.346 186.657 120.346C176.745 120.346 168.067 118.626 160.623 115.184C153.18 111.706 147.382 106.787 143.23 100.428C139.115 94.0316 137.058 86.457 137.058 77.7042V4.09055H168.254V75.011C168.254 78.5645 169.039 81.744 170.61 84.5494C172.181 87.3174 174.351 89.4869 177.119 91.0579C179.924 92.6289 183.104 93.4144 186.657 93.4144C190.248 93.4144 193.428 92.6289 196.196 91.0579C198.964 89.4869 201.133 87.3174 202.704 84.5494C204.275 81.744 205.061 78.5645 205.061 75.011V4.09055ZM258.983 119V4.09055H308.583C317.111 4.09055 324.573 5.64287 330.97 8.74752C337.366 11.8522 342.341 16.3221 345.894 22.1573C349.448 27.9925 351.225 34.9873 351.225 43.1417C351.225 51.3709 349.392 58.3095 345.726 63.9577C342.098 69.6059 336.992 73.8702 330.409 76.7504C323.863 79.6306 316.213 81.0707 307.461 81.0707H277.836V56.832H301.176C304.842 56.832 307.965 56.3832 310.546 55.4854C313.165 54.5503 315.166 53.0728 316.55 51.0529C317.971 49.033 318.682 46.396 318.682 43.1417C318.682 39.85 317.971 37.1756 316.55 35.1183C315.166 33.0236 313.165 31.4899 310.546 30.5174C307.965 29.5075 304.842 29.0025 301.176 29.0025H290.179V119H258.983ZM326.313 66.2582L355.04 119H321.151L293.097 66.2582H326.313ZM511.222 4.09055V119H485.188L443.668 58.6275H442.995V119H411.799V4.09055H438.282L479.128 64.2383H480.026V4.09055H511.222ZM533.879 119V4.09055H616.694V29.2269H565.075V48.9769H612.43V74.1133H565.075V93.8633H616.469V119H533.879ZM673.506 4.09055L692.358 37.5309H693.256L712.333 4.09055H747.12L712.782 61.5451L748.466 119H712.782L693.256 84.886H692.358L672.833 119H637.372L672.608 61.5451L638.495 4.09055H673.506ZM765.329 29.2269V4.09055H865.202V29.2269H830.639V119H799.892V29.2269H765.329ZM1031.5 47.1815H999.852C999.628 44.5631 999.029 42.1879 998.057 40.0558C997.122 37.9237 995.813 36.0908 994.129 34.5572C992.483 32.9862 990.482 31.7892 988.126 30.9663C985.769 30.1059 983.095 29.6758 980.102 29.6758C974.866 29.6758 970.433 30.9476 966.805 33.4911C963.214 36.0347 960.483 39.6817 958.613 44.4322C956.78 49.1826 955.864 54.887 955.864 61.5451C955.864 68.5773 956.799 74.4686 958.669 79.2191C960.577 83.9322 963.326 87.4857 966.917 89.8796C970.508 92.2362 974.828 93.4144 979.878 93.4144C982.758 93.4144 985.339 93.0591 987.621 92.3484C989.902 91.6003 991.885 90.5342 993.568 89.1502C995.251 87.7662 996.617 86.1017 997.664 84.1566C998.749 82.1741 999.478 79.9485 999.852 77.4798L1031.5 77.7042C1031.12 82.5669 1029.76 87.5231 1027.4 92.5728C1025.04 97.5851 1021.7 102.223 1017.36 106.488C1013.06 110.714 1007.73 114.118 1001.37 116.699C995.008 119.28 987.621 120.571 979.205 120.571C968.656 120.571 959.193 118.308 950.814 113.782C942.473 109.256 935.871 102.597 931.008 93.8072C926.183 85.0169 923.77 74.2629 923.77 61.5451C923.77 48.7525 926.239 37.9798 931.176 29.2269C936.114 20.4367 942.772 13.7972 951.151 9.30859C959.529 4.78255 968.881 2.51953 979.205 2.51953C986.461 2.51953 993.138 3.51077 999.235 5.49325C1005.33 7.47573 1010.68 10.3746 1015.28 14.19C1019.88 17.9679 1023.59 22.6249 1026.39 28.1609C1029.2 33.6969 1030.9 40.0371 1031.5 47.1815ZM1053.55 119V4.09055H1084.75V48.9769H1126.04V4.09055H1157.24V119H1126.04V74.1133H1084.75V119H1053.55ZM1209.8 119H1176.14L1214.06 4.09055H1256.71L1294.64 119H1260.97L1235.83 35.7354H1234.94L1209.8 119ZM1203.52 73.6644H1266.81V97.0053H1203.52V73.6644ZM1313.6 119V4.09055H1363.2C1371.73 4.09055 1379.19 5.77379 1385.59 9.14027C1391.99 12.5067 1396.96 17.2385 1400.51 23.3356C1404.07 29.4326 1405.84 36.5584 1405.84 44.7127C1405.84 52.9419 1404.01 60.0676 1400.35 66.0898C1396.72 72.1121 1391.61 76.7504 1385.03 80.0046C1378.48 83.2589 1370.83 84.886 1362.08 84.886H1332.45V60.6474H1355.8C1359.46 60.6474 1362.58 60.0115 1365.17 58.7397C1367.78 57.4305 1369.79 55.579 1371.17 53.185C1372.59 50.7911 1373.3 47.967 1373.3 44.7127C1373.3 41.421 1372.59 38.6156 1371.17 36.2965C1369.79 33.94 1367.78 32.1445 1365.17 30.9102C1362.58 29.6384 1359.46 29.0025 1355.8 29.0025H1344.8V119H1313.6ZM1422.05 29.2269V4.09055H1521.92V29.2269H1487.36V119H1456.61V29.2269H1422.05ZM1541.56 119V4.09055H1624.38V29.2269H1572.76V48.9769H1620.11V74.1133H1572.76V93.8633H1624.15V119H1541.56ZM1647.75 119V4.09055H1697.35C1705.88 4.09055 1713.34 5.64287 1719.73 8.74752C1726.13 11.8522 1731.11 16.3221 1734.66 22.1573C1738.21 27.9925 1739.99 34.9873 1739.99 43.1417C1739.99 51.3709 1738.16 58.3095 1734.49 63.9577C1730.86 69.6059 1725.76 73.8702 1719.17 76.7504C1712.63 79.6306 1704.98 81.0707 1696.22 81.0707H1666.6V56.832H1689.94C1693.61 56.832 1696.73 56.3832 1699.31 55.4854C1701.93 54.5503 1703.93 53.0728 1705.31 51.0529C1706.74 49.033 1707.45 46.396 1707.45 43.1417C1707.45 39.85 1706.74 37.1756 1705.31 35.1183C1703.93 33.0236 1701.93 31.4899 1699.31 30.5174C1696.73 29.5075 1693.61 29.0025 1689.94 29.0025H1678.94V119H1647.75ZM1715.08 66.2582L1743.8 119H1709.92L1681.86 66.2582H1715.08Z" stroke="#C53D2F" stroke-width="4" mask="url('#path-1-outside-1_290_170')"></path>
</svg>
